<?xml version="1.0" encoding="iso-8859-1"?>
<!-- Generator: Adobe Illustrator 19.0.0, SVG Export Plug-In . SVG Version: 6.00 Build 0)  -->
<svg version="1.1" id="Capa_1" xmlns="http://www.w3.org/2000/svg" xmlns:xlink="http://www.w3.org/1999/xlink" x="0px" y="0px"
	 viewBox="0 0 480 480" style="enable-background:new 0 0 480 480;" xml:space="preserve">
<g>
	
		<linearGradient id="SVGID_1_" gradientUnits="userSpaceOnUse" x1="-26.875" y1="557.786" x2="-26.875" y2="618.75" gradientTransform="matrix(8 0 0 -8 455 4941)">
		<stop  offset="0" style="stop-color:#006DF0"/>
		<stop  offset="1" style="stop-color:#00E7F0"/>
	</linearGradient>
	<path style="fill:url(#SVGID_1_);" d="M240,480c-2.386,0-4.648-1.065-6.168-2.904C226.896,468.712,64,270.576,64,176
		C64,78.798,142.798,0,240,0s176,78.798,176,176c0,94.576-162.896,292.712-169.832,301.096C244.648,478.935,242.386,480,240,480z
		 M240,16C151.676,16.101,80.101,87.676,80,176c0,78.976,129.896,245.712,160,283.288C270.104,421.704,400,254.96,400,176
		C399.899,87.676,328.324,16.101,240,16z"/>
	
		<linearGradient id="SVGID_2_" gradientUnits="userSpaceOnUse" x1="-26.875" y1="557.786" x2="-26.875" y2="618.75" gradientTransform="matrix(8 0 0 -8 455 4941)">
		<stop  offset="0" style="stop-color:#006DF0"/>
		<stop  offset="1" style="stop-color:#00E7F0"/>
	</linearGradient>
	<path style="fill:url(#SVGID_2_);" d="M348.88,145.664l-104-80c-2.877-2.214-6.883-2.214-9.76,0l-104,80
		c-3.499,2.697-4.149,7.721-1.452,11.22c1.514,1.964,3.852,3.115,6.332,3.116h24v88c0,4.418,3.582,8,8,8h144c4.418,0,8-3.582,8-8
		v-88h24c4.418-0.002,7.998-3.586,7.996-8.004C351.995,149.516,350.844,147.178,348.88,145.664z M224,240v-48h32v48H224z M312,144
		c-4.418,0-8,3.582-8,8v88h-32v-56c0-4.418-3.582-8-8-8h-48c-4.418,0-8,3.582-8,8v56h-32v-88c0-4.418-3.582-8-8-8h-8.48L240,82.096
		L320.48,144H312z"/>
</g>
<g>
</g>
<g>
</g>
<g>
</g>
<g>
</g>
<g>
</g>
<g>
</g>
<g>
</g>
<g>
</g>
<g>
</g>
<g>
</g>
<g>
</g>
<g>
</g>
<g>
</g>
<g>
</g>
<g>
</g>
</svg>
