<svg height="512pt" viewBox="0 0 512 512" width="512pt" xmlns="http://www.w3.org/2000/svg"><path d="m512 256c0 141.386719-114.613281 256-256 256s-256-114.613281-256-256 114.613281-256 256-256 256 114.613281 256 256zm0 0" fill="#414952"/><path d="m511.949219 260.035156-148.242188-148.242187-132.539062-9.402344-81.117188 83.21875 105.949219 277.128906 45.269531 45.269531c118.507813-21.144531 208.757813-123.84375 210.679688-247.972656zm0 0" fill="#333940"/><path d="m201.777344 212.023438c-14.972656 0-27.109375-12.136719-27.109375-27.109376v-95.042968h54.222656v95.042968c0 14.972657-12.140625 27.109376-27.113281 27.109376zm0 0" fill="#fe6a16"/><path d="m256 212.023438c-14.972656 0-27.109375-12.136719-27.109375-27.109376v-95.042968h54.21875v95.042968c0 14.972657-12.136719 27.109376-27.109375 27.109376zm0 0" fill="#fff"/><path d="m256 89.871094v122.152344c14.972656 0 27.109375-12.136719 27.109375-27.109376v-95.042968zm0 0" fill="#f2f6fc"/><path d="m310.222656 212.023438c-14.976562 0-27.113281-12.136719-27.113281-27.109376v-95.042968h54.222656v95.042968c0 14.972657-12.136719 27.109376-27.109375 27.109376zm0 0" fill="#f24500"/><path d="m256 61.261719c-77.347656 0-140.050781 62.703125-140.050781 140.050781 0 117.625 140.050781 261.425781 140.050781 261.425781s140.050781-143.800781 140.050781-261.425781c0-77.347656-62.703125-140.050781-140.050781-140.050781zm0 218.152343c-44.917969 0-81.332031-36.414062-81.332031-81.332031 0-44.921875 36.414062-81.332031 81.332031-81.332031s81.332031 36.414062 81.332031 81.332031-36.414062 81.332031-81.332031 81.332031zm0 0" fill="#ffd400"/><path d="m256 61.261719v55.488281c44.917969 0 81.332031 36.414062 81.332031 81.332031s-36.414062 81.332031-81.332031 81.332031v183.324219s140.050781-143.800781 140.050781-261.425781c0-77.347656-62.703125-140.050781-140.050781-140.050781zm0 0" fill="#fdba12"/></svg>